# xmcd
#
# Track frame offsets:
#	180
#	10818
#	22653
#	37242
#	49729
#	67769
#	79984
#	92743
#	102156
#	113934
#	122321
#	134253
#
# Disc length: 1949 seconds
#
# Revision: 0
# Processed by: cddbd v1.5.2PL0 Copyright (c) Steve Scherf et al.
# Submitted via: EasyCDDAExtractor 15.3.0.1
#
DISCID=8e079b0c
DTITLE=James Price - Southern Flavor
DYEAR=1997
DGENRE=Bluegrass
TTITLE0=Liza Jane
TTITLE1=Let Those Brown Eyes Smile At Me
TTITLE2=Southern Flavor
TTITLE3=Backing to Birmingham
TTITLE4=Old Dangerfield
TTITLE5=Don't Bring Me Flowers
TTITLE6=On My Way Back to the Old Home
TTITLE7=Swing Miss Molly
TTITLE8=Head Over Heels
TTITLE9=Billy in the Lowground
TTITLE10=Preachin', Prayin', Singin'
TTITLE11=Windy City Rag
EXTD=
EXTT0=
EXTT1=
EXTT2=
EXTT3=
EXTT4=
EXTT5=
EXTT6=
EXTT7=
EXTT8=
EXTT9=
EXTT10=
EXTT11=
PLAYORDER=
